<svg xmlns="http://www.w3.org/2000/svg" viewBox="0 0 16 16">
  <!-- Pixel heart favicon -->
  <rect x="2" y="1" width="2" height="2" fill="#FF69B4"/>
  <rect x="4" y="1" width="2" height="2" fill="#FF69B4"/>
  <rect x="8" y="1" width="2" height="2" fill="#FF69B4"/>
  <rect x="10" y="1" width="2" height="2" fill="#FF69B4"/>
  <rect x="1" y="3" width="2" height="2" fill="#FF69B4"/>
  <rect x="3" y="3" width="2" height="2" fill="#FFB6C1"/>
  <rect x="5" y="3" width="2" height="2" fill="#FF69B4"/>
  <rect x="7" y="3" width="2" height="2" fill="#FF69B4"/>
  <rect x="9" y="3" width="2" height="2" fill="#FFB6C1"/>
  <rect x="11" y="3" width="2" height="2" fill="#FF69B4"/>
  <rect x="1" y="5" width="2" height="2" fill="#FF69B4"/>
  <rect x="3" y="5" width="2" height="2" fill="#FF69B4"/>
  <rect x="5" y="5" width="2" height="2" fill="#FF69B4"/>
  <rect x="7" y="5" width="2" height="2" fill="#FF69B4"/>
  <rect x="9" y="5" width="2" height="2" fill="#FF69B4"/>
  <rect x="11" y="5" width="2" height="2" fill="#FF69B4"/>
  <rect x="2" y="7" width="2" height="2" fill="#FF69B4"/>
  <rect x="4" y="7" width="2" height="2" fill="#FF69B4"/>
  <rect x="6" y="7" width="2" height="2" fill="#FF69B4"/>
  <rect x="8" y="7" width="2" height="2" fill="#FF69B4"/>
  <rect x="10" y="7" width="2" height="2" fill="#FF69B4"/>
  <rect x="3" y="9" width="2" height="2" fill="#FF69B4"/>
  <rect x="5" y="9" width="2" height="2" fill="#FF69B4"/>
  <rect x="7" y="9" width="2" height="2" fill="#FF69B4"/>
  <rect x="9" y="9" width="2" height="2" fill="#FF69B4"/>
  <rect x="4" y="11" width="2" height="2" fill="#FF1493"/>
  <rect x="6" y="11" width="2" height="2" fill="#FF1493"/>
  <rect x="8" y="11" width="2" height="2" fill="#FF1493"/>
  <rect x="5" y="13" width="2" height="2" fill="#FF1493"/>
  <rect x="7" y="13" width="2" height="2" fill="#FF1493"/>
  <rect x="6" y="15" width="2" height="1" fill="#FF1493"/>
</svg>
